{"asset":{"version":"2.0","generator":"BDFR Hamun Engine test asset"},"scene":0,"scenes":[{"nodes":[0]}],"nodes":[{"mesh":0}],"meshes":[{"name":"HamunTestCube","primitives":[{"attributes":{"POSITION":0,"TEXCOORD_0":1},"indices":2,"material":0}]}],"materials":[{"name":"CheckerMaterial","pbrMetallicRoughness":{"baseColorTexture":{"index":0},"metallicFactor":0.0,"roughnessFactor":1.0}}],"textures":[{"source":0,"sampler":0}],"samplers":[{"magFilter":9729,"minFilter":9729,"wrapS":10497,"wrapT":10497}],"images":[{"uri":"checker.png"}],"buffers":[{"uri":"TestScene.bin","byteLength":552}],"bufferViews":[{"buffer":0,"byteOffset":0,"byteLength":288,"target":34962},{"buffer":0,"byteOffset":288,"byteLength":192,"target":34962},{"buffer":0,"byteOffset":480,"byteLength":72,"target":34963}],"accessors":[{"bufferView":0,"componentType":5126,"count":24,"type":"VEC3","min":[-0.6,-0.6,-0.6],"max":[0.6,0.6,0.6]},{"bufferView":1,"componentType":5126,"count":24,"type":"VEC2"},{"bufferView":2,"componentType":5123,"count":36,"type":"SCALAR"}]}